{
  "accessors": [
    {
      "bufferView": 2,
      "componentType": 5126,
      "count": 1057,
      "max": [
        0.5080866813659668,
        1.0803308486938477,
        0.6988434195518494
      ],
      "min": [
        -0.16922259330749512,
        -0.2869219183921814,
        -0.5692519545555115
      ],
      "type": "VEC3"
    },
    {
      "bufferView": 2,
      "byteOffset": 12684,
      "componentType": 5126,
      "count": 1057,
      "max": [
        1.0,
        1.0,
        1.0
      ],
      "min": [
        -1.0,
        -1.0,
        -1.0
      ],
      "type": "VEC3"
    },
    {
      "bufferView": 1,
      "componentType": 5126,
      "count": 1057,
      "max": [
        0.875,
        0.9875012636184692
      ],
      "min": [
        0.125,
        -2.5338540630859166e-16
      ],
      "type": "VEC2"
    },
    {
      "bufferView": 0,
      "componentType": 5125,
      "count": 3846,
      "type": "SCALAR"
    },
    {
      "bufferView": 2,
      "byteOffset": 25368,
      "componentType": 5126,
      "count": 436,
      "max": [
        0.6965031623840332,
        0.8729760646820068,
        0.5647217631340027
      ],
      "min": [
        0.3763608932495117,
        -0.2865239977836609,
        -0.43513038754463196
      ],
      "type": "VEC3"
    },
    {
      "bufferView": 2,
      "byteOffset": 30600,
      "componentType": 5126,
      "count": 436,
      "max": [
        1.0,
        1.0,
        0.999926745891571
      ],
      "min": [
        -1.0,
        -0.9999164938926697,
        -0.999926745891571
      ],
      "type": "VEC3"
    },
    {
      "bufferView": 1,
      "byteOffset": 8456,
      "componentType": 5126,
      "count": 436,
      "max": [
        1.0,
        1.0
      ],
      "min": [
        0.0,
        -2.9802322387695313e-08
      ],
      "type": "VEC2"
    },
    {
      "bufferView": 0,
      "byteOffset": 15384,
      "componentType": 5125,
      "count": 1056,
      "type": "SCALAR"
    },
    {
      "bufferView": 2,
      "byteOffset": 35832,
      "componentType": 5126,
      "count": 280,
      "max": [
        0.638089656829834,
        0.19306513667106628,
        0.7111952304840088
      ],
      "min": [
        0.07898958027362823,
        0.056651681661605835,
        -0.5785831212997437
      ],
      "type": "VEC3"
    },
    {
      "bufferView": 2,
      "byteOffset": 39192,
      "componentType": 5126,
      "count": 280,
      "max": [
        1.0,
        1.0,
        1.0
      ],
      "min": [
        -1.0,
        -0.7319602966308594,
        -1.0
      ],
      "type": "VEC3"
    },
    {
      "bufferView": 1,
      "byteOffset": 11944,
      "componentType": 5126,
      "count": 280,
      "max": [
        0.6125013828277588,
        0.625
      ],
      "min": [
        0.46729007363319397,
        0.125
      ],
      "type": "VEC2"
    },
    {
      "bufferView": 0,
      "byteOffset": 19608,
      "componentType": 5125,
      "count": 420,
      "type": "SCALAR"
    },
    {
      "bufferView": 2,
      "byteOffset": 42552,
      "componentType": 5126,
      "count": 12,
      "max": [
        0.3763608932495117,
        0.7551640272140503,
        0.25227785110473633
      ],
      "min": [
        0.3763608932495117,
        0.5879396200180054,
        -0.12776921689510345
      ],
      "type": "VEC3"
    },
    {
      "bufferView": 2,
      "byteOffset": 42696,
      "componentType": 5126,
      "count": 12,
      "max": [
        1.0,
        1.6238082878317073e-07,
        0.0
      ],
      "min": [
        1.0,
        -2.5558213678777975e-07,
        0.0
      ],
      "type": "VEC3"
    },
    {
      "bufferView": 1,
      "byteOffset": 14184,
      "componentType": 5126,
      "count": 12,
      "max": [
        0.6125013828277588,
        0.3860497772693634
      ],
      "min": [
        0.6125013828277588,
        0.36395037174224854
      ],
      "type": "VEC2"
    },
    {
      "bufferView": 0,
      "byteOffset": 21288,
      "componentType": 5125,
      "count": 18,
      "type": "SCALAR"
    },
    {
      "bufferView": 2,
      "byteOffset": 42840,
      "componentType": 5126,
      "count": 16,
      "max": [
        0.6965031623840332,
        -0.07544389367103577,
        0.48892486095428467
      ],
      "min": [
        0.6965031623840332,
        -0.22428081929683685,
        -0.35916656255722046
      ],
      "type": "VEC3"
    },
    {
      "bufferView": 2,
      "byteOffset": 43032,
      "componentType": 5126,
      "count": 16,
      "max": [
        1.0,
        4.4385862452145375e-07,
        0.0
      ],
      "min": [
        1.0,
        0.0,
        0.0
      ],
      "type": "VEC3"
    },
    {
      "bufferView": 1,
      "byteOffset": 14280,
      "componentType": 5126,
      "count": 16,
      "max": [
        0.6125013828277588,
        0.7061505317687988
      ],
      "min": [
        0.612501323223114,
        0.027934081852436066
      ],
      "type": "VEC2"
    },
    {
      "bufferView": 0,
      "byteOffset": 21360,
      "componentType": 5125,
      "count": 36,
      "type": "SCALAR"
    }
  ],
  "asset": {
    "extras": {
      "author": "vincentjo (https://sketchfab.com/vincentjoman)",
      "license": "CC-BY-4.0 (http://creativecommons.org/licenses/by/4.0/)",
      "source": "https://sketchfab.com/3d-models/snorlax-pokemon-quest-d5c1a89a6e5247bb9567d272580b6258",
      "title": "Snorlax (Pokemon Quest)"
    },
    "generator": "Sketchfab-12.66.0",
    "version": "2.0"
  },
  "bufferViews": [
    {
      "buffer": 0,
      "byteLength": 21504,
      "name": "floatBufferViews",
      "target": 34963
    },
    {
      "buffer": 0,
      "byteLength": 14408,
      "byteOffset": 21504,
      "byteStride": 8,
      "name": "floatBufferViews",
      "target": 34962
    },
    {
      "buffer": 0,
      "byteLength": 43224,
      "byteOffset": 35912,
      "byteStride": 12,
      "name": "floatBufferViews",
      "target": 34962
    }
  ],
  "buffers": [
    {
      "byteLength": 79136,
      "uri": "scene.bin"
    }
  ],
  "materials": [
    {
      "doubleSided": true,
      "name": "Snorlax",
      "pbrMetallicRoughness": {
        "baseColorFactor": [
          0.07,
          0.245,
          0.242,
          1.0
        ],
        "metallicFactor": 0.0,
        "roughnessFactor": 0.6
      }
    },
    {
      "doubleSided": true,
      "name": "Snorlax_Body",
      "pbrMetallicRoughness": {
        "baseColorFactor": [
          0.873,
          0.651,
          0.385,
          1.0
        ],
        "metallicFactor": 0.0,
        "roughnessFactor": 0.6
      }
    },
    {
      "doubleSided": true,
      "name": "Snorlax_Finger",
      "pbrMetallicRoughness": {
        "metallicFactor": 0.0,
        "roughnessFactor": 0.6
      }
    },
    {
      "doubleSided": true,
      "name": "Snorlax_Eye",
      "pbrMetallicRoughness": {
        "baseColorFactor": [
          0.0,
          0.0,
          0.0,
          1.0
        ],
        "metallicFactor": 0.0,
        "roughnessFactor": 0.6
      }
    },
    {
      "doubleSided": true,
      "name": "Snorlax_FeetUnder",
      "pbrMetallicRoughness": {
        "baseColorFactor": [
          0.128,
          0.086,
          0.0359,
          1.0
        ],
        "metallicFactor": 0.0,
        "roughnessFactor": 0.6
      }
    }
  ],
  "meshes": [
    {
      "name": "pCube39_Snorlax_0",
      "primitives": [
        {
          "attributes": {
            "NORMAL": 1,
            "POSITION": 0,
            "TEXCOORD_0": 2
          },
          "indices": 3,
          "material": 0,
          "mode": 4
        }
      ]
    },
    {
      "name": "pCube39_Snorlax_Body_0",
      "primitives": [
        {
          "attributes": {
            "NORMAL": 5,
            "POSITION": 4,
            "TEXCOORD_0": 6
          },
          "indices": 7,
          "material": 1,
          "mode": 4
        }
      ]
    },
    {
      "name": "pCube39_Snorlax_Finger_0",
      "primitives": [
        {
          "attributes": {
            "NORMAL": 9,
            "POSITION": 8,
            "TEXCOORD_0": 10
          },
          "indices": 11,
          "material": 2,
          "mode": 4
        }
      ]
    },
    {
      "name": "pCube39_Snorlax_Eye_0",
      "primitives": [
        {
          "attributes": {
            "NORMAL": 13,
            "POSITION": 12,
            "TEXCOORD_0": 14
          },
          "indices": 15,
          "material": 3,
          "mode": 4
        }
      ]
    },
    {
      "name": "pCube39_Snorlax_FeetUnder_0",
      "primitives": [
        {
          "attributes": {
            "NORMAL": 17,
            "POSITION": 16,
            "TEXCOORD_0": 18
          },
          "indices": 19,
          "material": 4,
          "mode": 4
        }
      ]
    }
  ],
  "nodes": [
    {
      "children": [
        1
      ],
      "matrix": [
        1.0,
        0.0,
        0.0,
        0.0,
        0.0,
        2.220446049250313e-16,
        -1.0,
        0.0,
        0.0,
        1.0,
        2.220446049250313e-16,
        0.0,
        0.0,
        0.0,
        0.0,
        1.0
      ],
      "name": "Sketchfab_model"
    },
    {
      "children": [
        2
      ],
      "matrix": [
        1.0,
        0.0,
        0.0,
        0.0,
        0.0,
        0.0,
        1.0,
        0.0,
        0.0,
        -1.0,
        0.0,
        0.0,
        0.0,
        0.0,
        0.0,
        1.0
      ],
      "name": "01aa8896bfba4529ba813461bc7daaf1.fbx"
    },
    {
      "children": [
        3
      ],
      "name": "RootNode"
    },
    {
      "children": [
        4,
        5,
        6,
        7,
        8
      ],
      "matrix": [
        3.3451383113861084,
        0.0,
        0.0,
        0.0,
        0.0,
        3.3451383113861084,
        0.0,
        0.0,
        0.0,
        0.0,
        3.549563407897949,
        0.0,
        -3.602254867553711,
        20.469594955444336,
        3.12101411819458,
        1.0
      ],
      "name": "pCube39"
    },
    {
      "mesh": 0,
      "name": "pCube39_Snorlax_0"
    },
    {
      "mesh": 1,
      "name": "pCube39_Snorlax_Body_0"
    },
    {
      "mesh": 2,
      "name": "pCube39_Snorlax_Finger_0"
    },
    {
      "mesh": 3,
      "name": "pCube39_Snorlax_Eye_0"
    },
    {
      "mesh": 4,
      "name": "pCube39_Snorlax_FeetUnder_0"
    }
  ],
  "scene": 0,
  "scenes": [
    {
      "name": "Sketchfab_Scene",
      "nodes": [
        0
      ]
    }
  ]
}
