{
  "accessors": [
    {
      "bufferView": 2,
      "componentType": 5126,
      "count": 4447,
      "max": [
        37.26938247680664,
        8.452982902526855,
        124.0965576171875
      ],
      "min": [
        -37.26938247680664,
        -16.868915557861328,
        7.712243556976318
      ],
      "type": "VEC3"
    },
    {
      "bufferView": 2,
      "byteOffset": 53364,
      "componentType": 5126,
      "count": 4447,
      "max": [
        1.0,
        1.0,
        1.0
      ],
      "min": [
        -1.0,
        -1.0,
        -1.0
      ],
      "type": "VEC3"
    },
    {
      "bufferView": 1,
      "componentType": 5126,
      "count": 4447,
      "max": [
        0.9885213375091553,
        1.3088431358337402
      ],
      "min": [
        0.0038573406636714935,
        0.009237147867679596
      ],
      "type": "VEC2"
    },
    {
      "bufferView": 0,
      "componentType": 5125,
      "count": 15702,
      "type": "SCALAR"
    },
    {
      "bufferView": 2,
      "byteOffset": 106728,
      "componentType": 5126,
      "count": 1699,
      "max": [
        18.07388687133789,
        11.237425804138184,
        92.03842163085938
      ],
      "min": [
        -18.07388687133789,
        -12.397525787353516,
        25.584396362304688
      ],
      "type": "VEC3"
    },
    {
      "bufferView": 2,
      "byteOffset": 127116,
      "componentType": 5126,
      "count": 1699,
      "max": [
        0.9998541474342346,
        0.9998642206192017,
        0.9996623396873474
      ],
      "min": [
        -0.9998541474342346,
        -0.9998642206192017,
        -1.0
      ],
      "type": "VEC3"
    },
    {
      "bufferView": 1,
      "byteOffset": 35576,
      "componentType": 5126,
      "count": 1699,
      "max": [
        0.9708926677703857,
        0.9646826386451721
      ],
      "min": [
        0.03964805603027344,
        0.02235019952058792
      ],
      "type": "VEC2"
    },
    {
      "bufferView": 1,
      "byteOffset": 49168,
      "componentType": 5126,
      "count": 1699,
      "max": [
        0.9708926677703857,
        0.9646826386451721
      ],
      "min": [
        0.03964805603027344,
        0.02235019952058792
      ],
      "type": "VEC2"
    },
    {
      "bufferView": 0,
      "byteOffset": 62808,
      "componentType": 5125,
      "count": 9024,
      "type": "SCALAR"
    },
    {
      "bufferView": 2,
      "byteOffset": 147504,
      "componentType": 5126,
      "count": 1373,
      "max": [
        41.16515350341797,
        10.789385795593262,
        61.49333953857422
      ],
      "min": [
        -41.16515350341797,
        -12.925443649291992,
        -0.2306194305419922
      ],
      "type": "VEC3"
    },
    {
      "bufferView": 2,
      "byteOffset": 163980,
      "componentType": 5126,
      "count": 1373,
      "max": [
        0.9984411597251892,
        0.9999892115592957,
        1.0
      ],
      "min": [
        -0.9984411597251892,
        -0.9999955892562866,
        -0.9999825954437256
      ],
      "type": "VEC3"
    },
    {
      "bufferView": 1,
      "byteOffset": 62760,
      "componentType": 5126,
      "count": 1373,
      "max": [
        0.9953486919403076,
        0.9535235166549683
      ],
      "min": [
        0.03260362148284912,
        0.010544085875153542
      ],
      "type": "VEC2"
    },
    {
      "bufferView": 1,
      "byteOffset": 73744,
      "componentType": 5126,
      "count": 1373,
      "max": [
        0.9953486919403076,
        0.9535235166549683
      ],
      "min": [
        0.03260362148284912,
        0.010544085875153542
      ],
      "type": "VEC2"
    },
    {
      "bufferView": 0,
      "byteOffset": 98904,
      "componentType": 5125,
      "count": 7860,
      "type": "SCALAR"
    },
    {
      "bufferView": 2,
      "byteOffset": 180456,
      "componentType": 5126,
      "count": 1428,
      "max": [
        37.81010055541992,
        10.349761962890625,
        88.77930450439453
      ],
      "min": [
        -37.81010055541992,
        -9.599273681640625,
        9.001976013183594
      ],
      "type": "VEC3"
    },
    {
      "bufferView": 2,
      "byteOffset": 197592,
      "componentType": 5126,
      "count": 1428,
      "max": [
        0.9976799488067627,
        0.9999882578849792,
        0.9909682869911194
      ],
      "min": [
        -0.9976800084114075,
        -0.9975172877311707,
        -0.9982755780220032
      ],
      "type": "VEC3"
    },
    {
      "bufferView": 1,
      "byteOffset": 84728,
      "componentType": 5126,
      "count": 1428,
      "max": [
        1.0,
        1.0
      ],
      "min": [
        0.0,
        0.0
      ],
      "type": "VEC2"
    },
    {
      "bufferView": 1,
      "byteOffset": 96152,
      "componentType": 5126,
      "count": 1428,
      "max": [
        1.0,
        1.0
      ],
      "min": [
        0.0,
        0.0
      ],
      "type": "VEC2"
    },
    {
      "bufferView": 0,
      "byteOffset": 130344,
      "componentType": 5125,
      "count": 6336,
      "type": "SCALAR"
    },
    {
      "bufferView": 2,
      "byteOffset": 214728,
      "componentType": 5126,
      "count": 66,
      "max": [
        3.9423458576202393,
        -11.62966537475586,
        106.64021301269531
      ],
      "min": [
        -3.944169044494629,
        -11.762298583984375,
        106.03170776367188
      ],
      "type": "VEC3"
    },
    {
      "bufferView": 2,
      "byteOffset": 215520,
      "componentType": 5126,
      "count": 66,
      "max": [
        0.8142830729484558,
        -0.5804614424705505,
        0.8142788410186768
      ],
      "min": [
        -0.8142863512039185,
        -1.0,
        -0.8142768144607544
      ],
      "type": "VEC3"
    },
    {
      "bufferView": 1,
      "byteOffset": 107576,
      "componentType": 5126,
      "count": 66,
      "max": [
        0.18878528475761414,
        0.824461042881012
      ],
      "min": [
        0.1645074486732483,
        0.799857497215271
      ],
      "type": "VEC2"
    },
    {
      "bufferView": 0,
      "byteOffset": 155688,
      "componentType": 5125,
      "count": 288,
      "type": "SCALAR"
    },
    {
      "bufferView": 2,
      "byteOffset": 216312,
      "componentType": 5126,
      "count": 2754,
      "max": [
        18.0605411529541,
        8.559118270874023,
        117.9137191772461
      ],
      "min": [
        -18.060543060302734,
        -17.49509048461914,
        88.95372009277344
      ],
      "type": "VEC3"
    },
    {
      "bufferView": 2,
      "byteOffset": 249360,
      "componentType": 5126,
      "count": 2754,
      "max": [
        0.9999222755432129,
        1.0,
        1.0
      ],
      "min": [
        -0.9999223351478577,
        -0.9999988675117493,
        -0.9999035000801086
      ],
      "type": "VEC3"
    },
    {
      "bufferView": 1,
      "byteOffset": 108104,
      "componentType": 5126,
      "count": 2754,
      "max": [
        0.9558396339416504,
        0.9938115477561951
      ],
      "min": [
        0.01628875732421875,
        0.023110270500183105
      ],
      "type": "VEC2"
    },
    {
      "bufferView": 1,
      "byteOffset": 130136,
      "componentType": 5126,
      "count": 2754,
      "max": [
        0.9558396339416504,
        0.9938115477561951
      ],
      "min": [
        0.01628875732421875,
        0.023110270500183105
      ],
      "type": "VEC2"
    },
    {
      "bufferView": 0,
      "byteOffset": 156840,
      "componentType": 5125,
      "count": 14994,
      "type": "SCALAR"
    }
  ],
  "asset": {
    "extras": {
      "author": "I6NIS (https://sketchfab.com/i6nis)",
      "license": "CC-BY-NC-4.0 (http://creativecommons.org/licenses/by-nc/4.0/)",
      "source": "https://sketchfab.com/3d-models/freddy-fazzbear-774b93f363554360849dac292dfd8e78",
      "title": "Freddy Fazzbear"
    },
    "generator": "Sketchfab-12.65.0",
    "version": "2.0"
  },
  "bufferViews": [
    {
      "buffer": 0,
      "byteLength": 216816,
      "name": "floatBufferViews",
      "target": 34963
    },
    {
      "buffer": 0,
      "byteLength": 152168,
      "byteOffset": 216816,
      "byteStride": 8,
      "name": "floatBufferViews",
      "target": 34962
    },
    {
      "buffer": 0,
      "byteLength": 282408,
      "byteOffset": 368984,
      "byteStride": 12,
      "name": "floatBufferViews",
      "target": 34962
    }
  ],
  "buffers": [
    {
      "byteLength": 651392,
      "uri": "scene.bin"
    }
  ],
  "images": [
    {
      "uri": "textures/FSkeleton_baseColor.png"
    },
    {
      "uri": "textures/FTorso_baseColor.png"
    },
    {
      "uri": "textures/FHead_baseColor.png"
    }
  ],
  "materials": [
    {
      "doubleSided": true,
      "name": "FSkeleton",
      "pbrMetallicRoughness": {
        "baseColorTexture": {
          "index": 0
        },
        "metallicFactor": 0.0,
        "roughnessFactor": 0.6
      }
    },
    {
      "doubleSided": true,
      "name": "FTorso",
      "pbrMetallicRoughness": {
        "baseColorTexture": {
          "index": 1
        },
        "metallicFactor": 0.0,
        "roughnessFactor": 0.6
      }
    },
    {
      "doubleSided": true,
      "name": "FOther",
      "pbrMetallicRoughness": {
        "baseColorTexture": {
          "index": 1
        },
        "metallicFactor": 0.0,
        "roughnessFactor": 0.6
      }
    },
    {
      "doubleSided": true,
      "name": "FBodyparts",
      "pbrMetallicRoughness": {
        "baseColorTexture": {
          "index": 1
        },
        "metallicFactor": 0.0,
        "roughnessFactor": 0.6
      }
    },
    {
      "doubleSided": true,
      "emissiveFactor": [
        1.0,
        1.0,
        1.0
      ],
      "name": "FLightup",
      "pbrMetallicRoughness": {
        "baseColorFactor": [
          0.8,
          0.8,
          0.8,
          1.0
        ],
        "metallicFactor": 0.0,
        "roughnessFactor": 0.6
      }
    },
    {
      "doubleSided": true,
      "name": "FHead",
      "pbrMetallicRoughness": {
        "baseColorTexture": {
          "index": 2
        },
        "metallicFactor": 0.0,
        "roughnessFactor": 0.6
      }
    }
  ],
  "meshes": [
    {
      "name": "polySurface82_FSkeleton_0",
      "primitives": [
        {
          "attributes": {
            "NORMAL": 1,
            "POSITION": 0,
            "TEXCOORD_0": 2
          },
          "indices": 3,
          "material": 0,
          "mode": 4
        }
      ]
    },
    {
      "name": "polySurface82_FTorso_0",
      "primitives": [
        {
          "attributes": {
            "NORMAL": 5,
            "POSITION": 4,
            "TEXCOORD_0": 6,
            "TEXCOORD_1": 7
          },
          "indices": 8,
          "material": 1,
          "mode": 4
        }
      ]
    },
    {
      "name": "polySurface82_FOther_0",
      "primitives": [
        {
          "attributes": {
            "NORMAL": 10,
            "POSITION": 9,
            "TEXCOORD_0": 11,
            "TEXCOORD_1": 12
          },
          "indices": 13,
          "material": 2,
          "mode": 4
        }
      ]
    },
    {
      "name": "polySurface82_FBodyparts_0",
      "primitives": [
        {
          "attributes": {
            "NORMAL": 15,
            "POSITION": 14,
            "TEXCOORD_0": 16,
            "TEXCOORD_1": 17
          },
          "indices": 18,
          "material": 3,
          "mode": 4
        }
      ]
    },
    {
      "name": "polySurface82_FLightup_0",
      "primitives": [
        {
          "attributes": {
            "NORMAL": 20,
            "POSITION": 19,
            "TEXCOORD_0": 21
          },
          "indices": 22,
          "material": 4,
          "mode": 4
        }
      ]
    },
    {
      "name": "polySurface82_FHead_0",
      "primitives": [
        {
          "attributes": {
            "NORMAL": 24,
            "POSITION": 23,
            "TEXCOORD_0": 25,
            "TEXCOORD_1": 26
          },
          "indices": 27,
          "material": 5,
          "mode": 4
        }
      ]
    }
  ],
  "nodes": [
    {
      "children": [
        1
      ],
      "matrix": [
        1.0,
        0.0,
        0.0,
        0.0,
        0.0,
        2.220446049250313e-16,
        -1.0,
        0.0,
        0.0,
        1.0,
        2.220446049250313e-16,
        0.0,
        0.0,
        0.0,
        0.0,
        1.0
      ],
      "name": "Sketchfab_model"
    },
    {
      "children": [
        2
      ],
      "matrix": [
        1.0,
        0.0,
        0.0,
        0.0,
        0.0,
        0.0,
        1.0,
        0.0,
        0.0,
        -1.0,
        0.0,
        0.0,
        0.0,
        0.0,
        0.0,
        1.0
      ],
      "name": "d9d4a2a5fdbf43199ee31c3d0b08ea51.fbx"
    },
    {
      "children": [
        3
      ],
      "name": "RootNode"
    },
    {
      "children": [
        4
      ],
      "matrix": [
        1.0,
        0.0,
        0.0,
        0.0,
        0.0,
        2.220446049250313e-16,
        -1.0,
        0.0,
        0.0,
        1.0,
        2.220446049250313e-16,
        0.0,
        0.0,
        0.0,
        -7.105427357601002e-15,
        1.0
      ],
      "name": "group"
    },
    {
      "children": [
        5,
        6,
        7,
        8,
        9,
        10
      ],
      "matrix": [
        0.6212422847747803,
        0.0,
        0.0,
        0.0,
        0.0,
        0.6212422847747803,
        0.0,
        0.0,
        0.0,
        0.0,
        0.6212422847747803,
        0.0,
        0.0,
        0.0,
        0.0,
        1.0
      ],
      "name": "polySurface82"
    },
    {
      "mesh": 0,
      "name": "polySurface82_FSkeleton_0"
    },
    {
      "mesh": 1,
      "name": "polySurface82_FTorso_0"
    },
    {
      "mesh": 2,
      "name": "polySurface82_FOther_0"
    },
    {
      "mesh": 3,
      "name": "polySurface82_FBodyparts_0"
    },
    {
      "mesh": 4,
      "name": "polySurface82_FLightup_0"
    },
    {
      "mesh": 5,
      "name": "polySurface82_FHead_0"
    }
  ],
  "samplers": [
    {
      "magFilter": 9729,
      "minFilter": 9987,
      "wrapS": 10497,
      "wrapT": 10497
    }
  ],
  "scene": 0,
  "scenes": [
    {
      "name": "Sketchfab_Scene",
      "nodes": [
        0
      ]
    }
  ],
  "textures": [
    {
      "sampler": 0,
      "source": 0
    },
    {
      "sampler": 0,
      "source": 1
    },
    {
      "sampler": 0,
      "source": 2
    }
  ]
}
