{
  "accessors": [
    {
      "bufferView": 2,
      "componentType": 5126,
      "count": 65532,
      "max": [
        -0.018006712198257446,
        0.30065789818763733,
        0.4020555913448334
      ],
      "min": [
        -7.945006847381592,
        -0.1573425531387329,
        -36.633670806884766
      ],
      "type": "VEC3"
    },
    {
      "bufferView": 2,
      "byteOffset": 786384,
      "componentType": 5126,
      "count": 65532,
      "max": [
        1.0,
        1.0,
        1.0
      ],
      "min": [
        -1.0,
        -1.0,
        -1.0
      ],
      "type": "VEC3"
    },
    {
      "bufferView": 1,
      "componentType": 5126,
      "count": 65532,
      "max": [
        0.9382222294807434,
        0.86870938539505
      ],
      "min": [
        0.26371708512306213,
        0.07995690405368805
      ],
      "type": "VEC2"
    },
    {
      "bufferView": 0,
      "componentType": 5125,
      "count": 84654,
      "type": "SCALAR"
    },
    {
      "bufferView": 2,
      "byteOffset": 1572768,
      "componentType": 5126,
      "count": 26087,
      "max": [
        -3.7477335929870605,
        0.30065789818763733,
        -9.322420120239258
      ],
      "min": [
        -7.945006847381592,
        -0.15734237432479858,
        -25.805273056030273
      ],
      "type": "VEC3"
    },
    {
      "bufferView": 2,
      "byteOffset": 1885812,
      "componentType": 5126,
      "count": 26087,
      "max": [
        0.9999709725379944,
        1.0,
        1.0
      ],
      "min": [
        -0.9999707341194153,
        -1.0,
        -1.0
      ],
      "type": "VEC3"
    },
    {
      "bufferView": 1,
      "byteOffset": 524256,
      "componentType": 5126,
      "count": 26087,
      "max": [
        0.9382222294807434,
        0.86870938539505
      ],
      "min": [
        0.26371708512306213,
        0.07995690405368805
      ],
      "type": "VEC2"
    },
    {
      "bufferView": 0,
      "byteOffset": 338616,
      "componentType": 5125,
      "count": 39156,
      "type": "SCALAR"
    }
  ],
  "asset": {
    "extras": {
      "author": "KARMA (https://sketchfab.com/syedabbas0815)",
      "license": "CC-BY-4.0 (http://creativecommons.org/licenses/by/4.0/)",
      "source": "https://sketchfab.com/3d-models/wooden-ramp-6e862a74dcab40bfa05ca823c764ccd0",
      "title": "Wooden Ramp"
    },
    "generator": "Sketchfab-13.96.0",
    "version": "2.0"
  },
  "bufferViews": [
    {
      "buffer": 0,
      "byteLength": 495240,
      "name": "floatBufferViews",
      "target": 34963
    },
    {
      "buffer": 0,
      "byteLength": 732952,
      "byteOffset": 495240,
      "byteStride": 8,
      "name": "floatBufferViews",
      "target": 34962
    },
    {
      "buffer": 0,
      "byteLength": 2198856,
      "byteOffset": 1228192,
      "byteStride": 12,
      "name": "floatBufferViews",
      "target": 34962
    }
  ],
  "buffers": [
    {
      "byteLength": 3427048,
      "uri": "scene.bin"
    }
  ],
  "images": [
    {
      "uri": "textures/Material.002_baseColor.jpeg"
    }
  ],
  "materials": [
    {
      "doubleSided": true,
      "name": "Material.002",
      "pbrMetallicRoughness": {
        "baseColorTexture": {
          "index": 0
        },
        "metallicFactor": 0.0,
        "roughnessFactor": 0.8055309639402554
      }
    }
  ],
  "meshes": [
    {
      "name": "cube_Material.002_0",
      "primitives": [
        {
          "attributes": {
            "NORMAL": 1,
            "POSITION": 0,
            "TEXCOORD_0": 2
          },
          "indices": 3,
          "material": 0,
          "mode": 4
        }
      ]
    },
    {
      "name": "cube_Material.002_0",
      "primitives": [
        {
          "attributes": {
            "NORMAL": 5,
            "POSITION": 4,
            "TEXCOORD_0": 6
          },
          "indices": 7,
          "material": 0,
          "mode": 4
        }
      ]
    }
  ],
  "nodes": [
    {
      "children": [
        1
      ],
      "name": "Sketchfab_model"
    },
    {
      "children": [
        2
      ],
      "matrix": [
        0.009999999776482582,
        0.0,
        0.0,
        0.0,
        0.0,
        0.0,
        0.009999999776482582,
        0.0,
        0.0,
        -0.009999999776482582,
        0.0,
        0.0,
        0.0,
        0.0,
        0.0,
        1.0
      ],
      "name": "Ramp fbx.fbx"
    },
    {
      "children": [
        3
      ],
      "name": "RootNode"
    },
    {
      "children": [
        4,
        5
      ],
      "matrix": [
        -4.371138984105016e-06,
        99.99999999999973,
        -5.960463766996327e-06,
        0.0,
        5.1430695377544514e-05,
        -1.8815951141286976e-05,
        -315.67935180663585,
        0.0,
        -99.99999999999858,
        -4.371139955550163e-06,
        -1.6292067961387602e-05,
        0.0,
        -1.4341555833816528,
        39.49300003051758,
        16.129161834716797,
        1.0
      ],
      "name": "cube"
    },
    {
      "mesh": 0,
      "name": "cube_Material.002_0"
    },
    {
      "mesh": 1,
      "name": "cube_Material.002_0"
    }
  ],
  "samplers": [
    {
      "magFilter": 9729,
      "minFilter": 9987,
      "wrapS": 10497,
      "wrapT": 10497
    }
  ],
  "scene": 0,
  "scenes": [
    {
      "name": "Sketchfab_Scene",
      "nodes": [
        0
      ]
    }
  ],
  "textures": [
    {
      "sampler": 0,
      "source": 0
    }
  ]
}
